<mxfile host="app.diagrams.net" modified="2024-06-25T14:34:59.706Z" agent="Mozilla/5.0 (Windows NT 10.0; Win64; x64) AppleWebKit/537.36 (KHTML, like Gecko) Chrome/126.0.0.0 Safari/537.36" etag="KabdvuoGtsoRd7tpONvJ" version="24.5.5" type="github" pages="2">
  <diagram name="Novos campos" id="d8rBECP_h64GZ1vk1dMh">
    <mxGraphModel dx="1050" dy="530" grid="1" gridSize="10" guides="1" tooltips="1" connect="1" arrows="1" fold="1" page="1" pageScale="1" pageWidth="827" pageHeight="1169" math="0" shadow="0">
      <root>
        <mxCell id="0" />
        <mxCell id="1" parent="0" />
        <mxCell id="OENSiATPbZI55zizup1Y-1" value="ODS" style="shape=cylinder3;whiteSpace=wrap;html=1;boundedLbl=1;backgroundOutline=1;size=15;verticalAlign=top;" parent="1" vertex="1">
          <mxGeometry x="290" y="190" width="150" height="80" as="geometry" />
        </mxCell>
        <mxCell id="OENSiATPbZI55zizup1Y-5" style="edgeStyle=orthogonalEdgeStyle;rounded=0;orthogonalLoop=1;jettySize=auto;html=1;entryX=0;entryY=0.5;entryDx=0;entryDy=0;" parent="1" source="OENSiATPbZI55zizup1Y-2" target="OENSiATPbZI55zizup1Y-6" edge="1">
          <mxGeometry relative="1" as="geometry">
            <mxPoint x="690" y="110" as="targetPoint" />
          </mxGeometry>
        </mxCell>
        <mxCell id="OENSiATPbZI55zizup1Y-2" value="MS&amp;nbsp;&lt;span dir=&quot;ltr&quot; class=&quot;ui-provider a b c d e f g h i j k l m n o p q r s t u v w x y z ab ac ae af ag ah ai aj ak&quot;&gt; customer-netsms-assetssync-svc&lt;/span&gt;" style="rounded=1;whiteSpace=wrap;html=1;fillColor=#fff2cc;strokeColor=#d6b656;" parent="1" vertex="1">
          <mxGeometry x="540" y="80" width="120" height="60" as="geometry" />
        </mxCell>
        <mxCell id="OENSiATPbZI55zizup1Y-3" style="edgeStyle=orthogonalEdgeStyle;rounded=0;orthogonalLoop=1;jettySize=auto;html=1;entryX=0.5;entryY=0;entryDx=0;entryDy=0;entryPerimeter=0;" parent="1" source="OENSiATPbZI55zizup1Y-2" target="OENSiATPbZI55zizup1Y-1" edge="1">
          <mxGeometry relative="1" as="geometry" />
        </mxCell>
        <mxCell id="OENSiATPbZI55zizup1Y-4" value="Ler novos campos:&amp;nbsp;&lt;div&gt;DESCRIÇÃO BOLETO&lt;br&gt;&lt;div&gt;&lt;div&gt;PARCEIRO​&lt;/div&gt;&lt;div&gt;CONTRATO PARCEIRO​&lt;/div&gt;&lt;div&gt;DATA INÍCIO​&lt;/div&gt;&lt;div&gt;DATA FIM​&lt;/div&gt;&lt;div&gt;STATUS​&lt;/div&gt;&lt;div&gt;VALOR​&lt;/div&gt;&lt;/div&gt;&lt;/div&gt;" style="edgeLabel;html=1;align=center;verticalAlign=middle;resizable=0;points=[];" parent="OENSiATPbZI55zizup1Y-3" vertex="1" connectable="0">
          <mxGeometry x="-0.1462" y="-3" relative="1" as="geometry">
            <mxPoint x="29" y="3" as="offset" />
          </mxGeometry>
        </mxCell>
        <mxCell id="OENSiATPbZI55zizup1Y-6" value="SOLAR" style="rounded=1;whiteSpace=wrap;html=1;" parent="1" vertex="1">
          <mxGeometry x="690" y="80" width="120" height="60" as="geometry" />
        </mxCell>
        <mxCell id="4XYswVzpXXXGzXN83mXn-10" value="" style="edgeStyle=elbowEdgeStyle;elbow=vertical;endArrow=classic;html=1;curved=0;rounded=0;endSize=8;startSize=8;entryX=0.24;entryY=-0.01;entryDx=0;entryDy=0;entryPerimeter=0;exitX=1;exitY=0;exitDx=0;exitDy=15;exitPerimeter=0;" edge="1" parent="1" source="4XYswVzpXXXGzXN83mXn-2" target="OENSiATPbZI55zizup1Y-1">
          <mxGeometry width="50" height="50" relative="1" as="geometry">
            <mxPoint x="230" y="100" as="sourcePoint" />
            <mxPoint x="440" y="50" as="targetPoint" />
            <Array as="points">
              <mxPoint x="240" y="115" />
            </Array>
          </mxGeometry>
        </mxCell>
        <mxCell id="4XYswVzpXXXGzXN83mXn-12" value="Oracle Golden Gate&lt;div&gt;(replicar novos campos&amp;nbsp;&lt;/div&gt;&lt;div&gt;na ODS)&lt;/div&gt;" style="edgeLabel;html=1;align=center;verticalAlign=middle;resizable=0;points=[];" vertex="1" connectable="0" parent="4XYswVzpXXXGzXN83mXn-10">
          <mxGeometry x="-0.3849" y="3" relative="1" as="geometry">
            <mxPoint x="9" y="-2" as="offset" />
          </mxGeometry>
        </mxCell>
        <mxCell id="4XYswVzpXXXGzXN83mXn-11" value="" style="group" vertex="1" connectable="0" parent="1">
          <mxGeometry x="30" y="80" width="140" height="190" as="geometry" />
        </mxCell>
        <mxCell id="4XYswVzpXXXGzXN83mXn-5" value="NETSMS - BASE 8" style="shape=cylinder3;whiteSpace=wrap;html=1;boundedLbl=1;backgroundOutline=1;size=15;" vertex="1" parent="4XYswVzpXXXGzXN83mXn-11">
          <mxGeometry y="140" width="140" height="50" as="geometry" />
        </mxCell>
        <mxCell id="4XYswVzpXXXGzXN83mXn-6" value="NETSMS - BASE 7" style="shape=cylinder3;whiteSpace=wrap;html=1;boundedLbl=1;backgroundOutline=1;size=15;" vertex="1" parent="4XYswVzpXXXGzXN83mXn-11">
          <mxGeometry y="120" width="140" height="50" as="geometry" />
        </mxCell>
        <mxCell id="4XYswVzpXXXGzXN83mXn-7" value="NETSMS - BASE 6" style="shape=cylinder3;whiteSpace=wrap;html=1;boundedLbl=1;backgroundOutline=1;size=15;" vertex="1" parent="4XYswVzpXXXGzXN83mXn-11">
          <mxGeometry y="100" width="140" height="50" as="geometry" />
        </mxCell>
        <mxCell id="4XYswVzpXXXGzXN83mXn-8" value="NETSMS - BASE 5" style="shape=cylinder3;whiteSpace=wrap;html=1;boundedLbl=1;backgroundOutline=1;size=15;" vertex="1" parent="4XYswVzpXXXGzXN83mXn-11">
          <mxGeometry y="80" width="140" height="50" as="geometry" />
        </mxCell>
        <mxCell id="4XYswVzpXXXGzXN83mXn-3" value="NETSMS - BASE 4" style="shape=cylinder3;whiteSpace=wrap;html=1;boundedLbl=1;backgroundOutline=1;size=15;" vertex="1" parent="4XYswVzpXXXGzXN83mXn-11">
          <mxGeometry y="60" width="140" height="50" as="geometry" />
        </mxCell>
        <mxCell id="4XYswVzpXXXGzXN83mXn-4" value="NETSMS - BASE 3" style="shape=cylinder3;whiteSpace=wrap;html=1;boundedLbl=1;backgroundOutline=1;size=15;" vertex="1" parent="4XYswVzpXXXGzXN83mXn-11">
          <mxGeometry y="40" width="140" height="50" as="geometry" />
        </mxCell>
        <mxCell id="4XYswVzpXXXGzXN83mXn-2" value="NETSMS - BASE 2" style="shape=cylinder3;whiteSpace=wrap;html=1;boundedLbl=1;backgroundOutline=1;size=15;" vertex="1" parent="4XYswVzpXXXGzXN83mXn-11">
          <mxGeometry y="20" width="140" height="50" as="geometry" />
        </mxCell>
        <mxCell id="4XYswVzpXXXGzXN83mXn-1" value="NETSMS - BASE 1" style="shape=cylinder3;whiteSpace=wrap;html=1;boundedLbl=1;backgroundOutline=1;size=15;" vertex="1" parent="4XYswVzpXXXGzXN83mXn-11">
          <mxGeometry width="140" height="50" as="geometry" />
        </mxCell>
        <mxCell id="4XYswVzpXXXGzXN83mXn-13" value="Replica feita internamente na Claro,&amp;nbsp; 30-40 dias a partir da abertura de chamado." style="text;html=1;align=center;verticalAlign=middle;whiteSpace=wrap;rounded=0;fillColor=#fff2cc;strokeColor=#d6b656;sketch=1;curveFitting=1;jiggle=2;" vertex="1" parent="1">
          <mxGeometry x="60" y="290" width="210" height="70" as="geometry" />
        </mxCell>
        <mxCell id="4XYswVzpXXXGzXN83mXn-14" value="" style="endArrow=none;html=1;rounded=0;exitX=0.794;exitY=-0.011;exitDx=0;exitDy=0;exitPerimeter=0;dashed=1;dashPattern=1 2;" edge="1" parent="1" source="4XYswVzpXXXGzXN83mXn-13">
          <mxGeometry width="50" height="50" relative="1" as="geometry">
            <mxPoint x="390" y="200" as="sourcePoint" />
            <mxPoint x="227" y="130" as="targetPoint" />
          </mxGeometry>
        </mxCell>
      </root>
    </mxGraphModel>
  </diagram>
  <diagram name="Performance" id="R1JaamWQcrFY3OawWxU-">
    <mxGraphModel dx="1050" dy="530" grid="1" gridSize="10" guides="1" tooltips="1" connect="1" arrows="1" fold="1" page="1" pageScale="1" pageWidth="827" pageHeight="1169" math="0" shadow="0">
      <root>
        <mxCell id="YWZ8qudDUFrtY-XEBCpL-0" />
        <mxCell id="YWZ8qudDUFrtY-XEBCpL-1" parent="YWZ8qudDUFrtY-XEBCpL-0" />
        <mxCell id="YWZ8qudDUFrtY-XEBCpL-2" value="ODS" style="shape=cylinder3;whiteSpace=wrap;html=1;boundedLbl=1;backgroundOutline=1;size=15;verticalAlign=top;" parent="YWZ8qudDUFrtY-XEBCpL-1" vertex="1">
          <mxGeometry x="150" y="190" width="250" height="80" as="geometry" />
        </mxCell>
        <mxCell id="YWZ8qudDUFrtY-XEBCpL-3" style="edgeStyle=orthogonalEdgeStyle;rounded=0;orthogonalLoop=1;jettySize=auto;html=1;entryX=0;entryY=0.5;entryDx=0;entryDy=0;" parent="YWZ8qudDUFrtY-XEBCpL-1" source="YWZ8qudDUFrtY-XEBCpL-4" target="YWZ8qudDUFrtY-XEBCpL-7" edge="1">
          <mxGeometry relative="1" as="geometry">
            <mxPoint x="690" y="110" as="targetPoint" />
          </mxGeometry>
        </mxCell>
        <mxCell id="r7JMKZSOCLxWXZMqLrQn-0" value="&lt;b&gt;GET:&lt;/b&gt;&amp;nbsp;&lt;div&gt;CPF/CNPJ&lt;div&gt;&lt;b&gt;RESPONSE&lt;/b&gt;:&amp;nbsp;&lt;/div&gt;&lt;div&gt;NR CONTRATO,&amp;nbsp;&lt;/div&gt;&lt;div&gt;OPERADORA,&amp;nbsp;&lt;/div&gt;&lt;div&gt;STATUS&lt;/div&gt;&lt;/div&gt;&lt;div&gt;&lt;br&gt;&lt;/div&gt;&lt;div&gt;&lt;i&gt;*PAGINADO&lt;/i&gt;&lt;/div&gt;" style="edgeLabel;html=1;align=center;verticalAlign=middle;resizable=0;points=[];" vertex="1" connectable="0" parent="YWZ8qudDUFrtY-XEBCpL-3">
          <mxGeometry x="0.1979" relative="1" as="geometry">
            <mxPoint as="offset" />
          </mxGeometry>
        </mxCell>
        <mxCell id="r7JMKZSOCLxWXZMqLrQn-1" style="edgeStyle=orthogonalEdgeStyle;rounded=0;orthogonalLoop=1;jettySize=auto;html=1;entryX=0.5;entryY=1;entryDx=0;entryDy=0;exitX=0.75;exitY=1;exitDx=0;exitDy=0;" edge="1" parent="YWZ8qudDUFrtY-XEBCpL-1" source="YWZ8qudDUFrtY-XEBCpL-4" target="YWZ8qudDUFrtY-XEBCpL-7">
          <mxGeometry relative="1" as="geometry">
            <Array as="points">
              <mxPoint x="470" y="240" />
              <mxPoint x="750" y="240" />
            </Array>
          </mxGeometry>
        </mxCell>
        <mxCell id="r7JMKZSOCLxWXZMqLrQn-2" value="&lt;b&gt;GET&lt;/b&gt;:&lt;div&gt;NR CONTRATO&lt;/div&gt;&lt;div&gt;OPERADORA&lt;/div&gt;&lt;div&gt;&lt;b&gt;RESPONSE&lt;/b&gt;:&lt;/div&gt;&lt;div&gt;DETALHES CONTRATO&lt;/div&gt;&lt;div&gt;&lt;br&gt;&lt;/div&gt;&lt;div&gt;&lt;i&gt;*PAGINADO&lt;/i&gt;&amp;nbsp;&lt;/div&gt;" style="edgeLabel;html=1;align=center;verticalAlign=middle;resizable=0;points=[];" vertex="1" connectable="0" parent="r7JMKZSOCLxWXZMqLrQn-1">
          <mxGeometry x="-0.0629" y="-2" relative="1" as="geometry">
            <mxPoint x="25" y="-2" as="offset" />
          </mxGeometry>
        </mxCell>
        <mxCell id="YWZ8qudDUFrtY-XEBCpL-4" value="MS&amp;nbsp;&lt;span dir=&quot;ltr&quot; class=&quot;ui-provider a b c d e f g h i j k l m n o p q r s t u v w x y z ab ac ae af ag ah ai aj ak&quot;&gt; customer-netsms-assetssync-svc&lt;/span&gt;" style="rounded=1;whiteSpace=wrap;html=1;fillColor=#fff2cc;strokeColor=#d6b656;" parent="YWZ8qudDUFrtY-XEBCpL-1" vertex="1">
          <mxGeometry x="380" y="80" width="120" height="60" as="geometry" />
        </mxCell>
        <mxCell id="YWZ8qudDUFrtY-XEBCpL-5" style="edgeStyle=orthogonalEdgeStyle;rounded=0;orthogonalLoop=1;jettySize=auto;html=1;entryX=0.5;entryY=0;entryDx=0;entryDy=0;entryPerimeter=0;exitX=0;exitY=0.5;exitDx=0;exitDy=0;" parent="YWZ8qudDUFrtY-XEBCpL-1" source="YWZ8qudDUFrtY-XEBCpL-4" target="YWZ8qudDUFrtY-XEBCpL-2" edge="1">
          <mxGeometry relative="1" as="geometry" />
        </mxCell>
        <mxCell id="YWZ8qudDUFrtY-XEBCpL-7" value="SOLAR" style="rounded=1;whiteSpace=wrap;html=1;" parent="YWZ8qudDUFrtY-XEBCpL-1" vertex="1">
          <mxGeometry x="690" y="80" width="120" height="60" as="geometry" />
        </mxCell>
      </root>
    </mxGraphModel>
  </diagram>
</mxfile>
